<svg width="100" height="100" viewBox="0 0 100 100"  fill="#FF7B00" xmlns="http://www.w3.org/2000/svg"><title>Artboard</title><path d="M79.598 4.065c-.58-1.027-1.897-1.362-2.902-.781L41.897 23.373a2.148 2.148 0 0 0-1.026 2.277l11.808 57.7-1.764 1.987c-2.969 3.326-5.469 5.134-10.223 5.134-5.335 0-7.857-2.812-11.808-7.79-4.732-5.938-10.647-13.326-24.978-13.326H3.55A3.544 3.544 0 0 0 0 72.905a3.544 3.544 0 0 0 3.55 3.548h.356c10.938 0 15.067 5.179 19.442 10.67 3.906 4.91 8.348 10.446 17.366 10.446 7.79 0 12.054-3.616 15.536-7.522l12.79-14.42L99.464 41.32a2.12 2.12 0 0 0 .246-2.477L79.598 4.065z" fill-rule="evenodd"/></svg>
